<?xml version="1.0" encoding="UTF-8"?>
<!--Generator: Apple Native CoreSVG 149-->
<!DOCTYPE svg
PUBLIC "-//W3C//DTD SVG 1.1//EN"
       "http://www.w3.org/Graphics/SVG/1.1/DTD/svg11.dtd">
<svg version="1.1" xmlns="http://www.w3.org/2000/svg" xmlns:xlink="http://www.w3.org/1999/xlink" width="3300" height="2200">
 <!--glyph: "uni100587.medium", point size: 100.0, font version: "17.0d9e1", template writer version: "59"-->
 <g id="Notes">
  <rect height="2200" id="artboard" style="fill:white;opacity:1" width="3300" x="0" y="0"/>
  <line style="fill:none;stroke:black;opacity:1;stroke-width:0.5;" x1="263" x2="3036" y1="292" y2="292"/>
  <text style="stroke:none;fill:black;font-family:sans-serif;font-size:13;font-weight:bold;" transform="matrix(1 0 0 1 263 322)">Weight/Scale Variations</text>
  <text style="stroke:none;fill:black;font-family:sans-serif;font-size:13;text-anchor:middle;" transform="matrix(1 0 0 1 559.711 322)">Ultralight</text>
  <text style="stroke:none;fill:black;font-family:sans-serif;font-size:13;text-anchor:middle;" transform="matrix(1 0 0 1 856.422 322)">Thin</text>
  <text style="stroke:none;fill:black;font-family:sans-serif;font-size:13;text-anchor:middle;" transform="matrix(1 0 0 1 1153.13 322)">Light</text>
  <text style="stroke:none;fill:black;font-family:sans-serif;font-size:13;text-anchor:middle;" transform="matrix(1 0 0 1 1449.84 322)">Regular</text>
  <text style="stroke:none;fill:black;font-family:sans-serif;font-size:13;text-anchor:middle;" transform="matrix(1 0 0 1 1746.56 322)">Medium</text>
  <text style="stroke:none;fill:black;font-family:sans-serif;font-size:13;text-anchor:middle;" transform="matrix(1 0 0 1 2043.27 322)">Semibold</text>
  <text style="stroke:none;fill:black;font-family:sans-serif;font-size:13;text-anchor:middle;" transform="matrix(1 0 0 1 2339.98 322)">Bold</text>
  <text style="stroke:none;fill:black;font-family:sans-serif;font-size:13;text-anchor:middle;" transform="matrix(1 0 0 1 2636.69 322)">Heavy</text>
  <text style="stroke:none;fill:black;font-family:sans-serif;font-size:13;text-anchor:middle;" transform="matrix(1 0 0 1 2933.4 322)">Black</text>
  <line style="fill:none;stroke:black;opacity:1;stroke-width:0.5;" x1="263" x2="3036" y1="1903" y2="1903"/>
  <g transform="matrix(1 0 0 1 263 1933)">
   <path d="M9.24805 0.830078Q10.8691 0.830078 12.2949 0.214844Q13.7207-0.400391 14.8096-1.49414Q15.8984-2.58789 16.5186-4.01367Q17.1387-5.43945 17.1387-7.05078Q17.1387-8.66211 16.5186-10.0879Q15.8984-11.5137 14.8047-12.6074Q13.7109-13.7012 12.2852-14.3164Q10.8594-14.9316 9.23828-14.9316Q7.62695-14.9316 6.20117-14.3164Q4.77539-13.7012 3.69141-12.6074Q2.60742-11.5137 1.9873-10.0879Q1.36719-8.66211 1.36719-7.05078Q1.36719-5.43945 1.9873-4.01367Q2.60742-2.58789 3.69629-1.49414Q4.78516-0.400391 6.21094 0.214844Q7.63672 0.830078 9.24805 0.830078ZM9.24805-0.654297Q7.91992-0.654297 6.7627-1.14746Q5.60547-1.64062 4.73145-2.51953Q3.85742-3.39844 3.36426-4.56055Q2.87109-5.72266 2.87109-7.05078Q2.87109-8.37891 3.35938-9.54102Q3.84766-10.7031 4.72168-11.582Q5.5957-12.4609 6.75293-12.9541Q7.91016-13.4473 9.23828-13.4473Q10.5762-13.4473 11.7334-12.9541Q12.8906-12.4609 13.7695-11.582Q14.6484-10.7031 15.1465-9.54102Q15.6445-8.37891 15.6445-7.05078Q15.6445-5.72266 15.1514-4.56055Q14.6582-3.39844 13.7842-2.51953Q12.9102-1.64062 11.748-1.14746Q10.5859-0.654297 9.24805-0.654297ZM5.83984-7.04102Q5.83984-6.71875 6.04492-6.51855Q6.25-6.31836 6.5918-6.31836L8.50586-6.31836L8.50586-4.39453Q8.50586-4.0625 8.70605-3.85742Q8.90625-3.65234 9.22852-3.65234Q9.56055-3.65234 9.76562-3.85742Q9.9707-4.0625 9.9707-4.39453L9.9707-6.31836L11.8945-6.31836Q12.2266-6.31836 12.4316-6.51855Q12.6367-6.71875 12.6367-7.04102Q12.6367-7.37305 12.4316-7.57812Q12.2266-7.7832 11.8945-7.7832L9.9707-7.7832L9.9707-9.69727Q9.9707-10.0391 9.76562-10.2441Q9.56055-10.4492 9.22852-10.4492Q8.90625-10.4492 8.70605-10.2441Q8.50586-10.0391 8.50586-9.69727L8.50586-7.7832L6.5918-7.7832Q6.25-7.7832 6.04492-7.57812Q5.83984-7.37305 5.83984-7.04102Z"/>
  </g>
  <g transform="matrix(1 0 0 1 281.867 1933)">
   <path d="M11.709 2.91016Q13.75 2.91016 15.5518 2.12891Q17.3535 1.34766 18.7305-0.0292969Q20.1074-1.40625 20.8887-3.20801Q21.6699-5.00977 21.6699-7.05078Q21.6699-9.0918 20.8887-10.8936Q20.1074-12.6953 18.7305-14.0723Q17.3535-15.4492 15.5469-16.2305Q13.7402-17.0117 11.6992-17.0117Q9.6582-17.0117 7.85645-16.2305Q6.05469-15.4492 4.68262-14.0723Q3.31055-12.6953 2.5293-10.8936Q1.74805-9.0918 1.74805-7.05078Q1.74805-5.00977 2.5293-3.20801Q3.31055-1.40625 4.6875-0.0292969Q6.06445 1.34766 7.86621 2.12891Q9.66797 2.91016 11.709 2.91016ZM11.709 1.25Q9.98047 1.25 8.47656 0.605469Q6.97266-0.0390625 5.83496-1.17676Q4.69727-2.31445 4.05762-3.81836Q3.41797-5.32227 3.41797-7.05078Q3.41797-8.7793 4.05762-10.2832Q4.69727-11.7871 5.83008-12.9297Q6.96289-14.0723 8.4668-14.7119Q9.9707-15.3516 11.6992-15.3516Q13.4277-15.3516 14.9316-14.7119Q16.4355-14.0723 17.5781-12.9297Q18.7207-11.7871 19.3652-10.2832Q20.0098-8.7793 20.0098-7.05078Q20.0098-5.32227 19.3701-3.81836Q18.7305-2.31445 17.5928-1.17676Q16.4551-0.0390625 14.9463 0.605469Q13.4375 1.25 11.709 1.25ZM7.39258-7.04102Q7.39258-6.68945 7.62695-6.46484Q7.86133-6.24023 8.23242-6.24023L10.8789-6.24023L10.8789-3.57422Q10.8789-3.21289 11.1035-2.9834Q11.3281-2.75391 11.6797-2.75391Q12.0508-2.75391 12.2852-2.9834Q12.5195-3.21289 12.5195-3.57422L12.5195-6.24023L15.1758-6.24023Q15.5371-6.24023 15.7715-6.46484Q16.0059-6.68945 16.0059-7.04102Q16.0059-7.41211 15.7715-7.6416Q15.5371-7.87109 15.1758-7.87109L12.5195-7.87109L12.5195-10.5176Q12.5195-10.8984 12.2852-11.1279Q12.0508-11.3574 11.6797-11.3574Q11.3281-11.3574 11.1035-11.1279Q10.8789-10.8984 10.8789-10.5176L10.8789-7.87109L8.23242-7.87109Q7.85156-7.87109 7.62207-7.6416Q7.39258-7.41211 7.39258-7.04102Z"/>
  </g>
  <g transform="matrix(1 0 0 1 305.646 1933)">
   <path d="M14.9707 5.66406Q17.0605 5.66406 18.96 5.01465Q20.8594 4.36523 22.4512 3.19336Q24.043 2.02148 25.2197 0.429688Q26.3965-1.16211 27.0459-3.06641Q27.6953-4.9707 27.6953-7.05078Q27.6953-9.14062 27.0459-11.04Q26.3965-12.9395 25.2197-14.5312Q24.043-16.123 22.4512-17.2998Q20.8594-18.4766 18.9551-19.126Q17.0508-19.7754 14.9609-19.7754Q12.8711-19.7754 10.9717-19.126Q9.07227-18.4766 7.48535-17.2998Q5.89844-16.123 4.72168-14.5312Q3.54492-12.9395 2.90039-11.04Q2.25586-9.14062 2.25586-7.05078Q2.25586-4.9707 2.90527-3.06641Q3.55469-1.16211 4.72656 0.429688Q5.89844 2.02148 7.49023 3.19336Q9.08203 4.36523 10.9814 5.01465Q12.8809 5.66406 14.9707 5.66406ZM14.9707 3.84766Q13.1641 3.84766 11.5283 3.2959Q9.89258 2.74414 8.53516 1.74805Q7.17773 0.751953 6.17676-0.610352Q5.17578-1.97266 4.62891-3.6084Q4.08203-5.24414 4.08203-7.05078Q4.08203-8.86719 4.62891-10.5029Q5.17578-12.1387 6.17188-13.501Q7.16797-14.8633 8.52539-15.8594Q9.88281-16.8555 11.5186-17.4023Q13.1543-17.9492 14.9609-17.9492Q16.7773-17.9492 18.4131-17.4023Q20.0488-16.8555 21.4111-15.8594Q22.7734-14.8633 23.7695-13.501Q24.7656-12.1387 25.3174-10.5029Q25.8691-8.86719 25.8691-7.05078Q25.8789-5.24414 25.332-3.6084Q24.7852-1.97266 23.7842-0.610352Q22.7832 0.751953 21.4209 1.74805Q20.0586 2.74414 18.4229 3.2959Q16.7871 3.84766 14.9707 3.84766ZM9.45312-7.04102Q9.45312-6.66016 9.71191-6.41113Q9.9707-6.16211 10.3711-6.16211L14.0625-6.16211L14.0625-2.46094Q14.0625-2.06055 14.3115-1.80664Q14.5605-1.55273 14.9414-1.55273Q15.3516-1.55273 15.6055-1.80664Q15.8594-2.06055 15.8594-2.46094L15.8594-6.16211L19.5605-6.16211Q19.9609-6.16211 20.2148-6.41113Q20.4688-6.66016 20.4688-7.04102Q20.4688-7.45117 20.2148-7.70508Q19.9609-7.95898 19.5605-7.95898L15.8594-7.95898L15.8594-11.6504Q15.8594-12.0605 15.6055-12.3145Q15.3516-12.5684 14.9414-12.5684Q14.5605-12.5684 14.3115-12.3096Q14.0625-12.0508 14.0625-11.6504L14.0625-7.95898L10.3711-7.95898Q9.96094-7.95898 9.70703-7.70508Q9.45312-7.45117 9.45312-7.04102Z"/>
  </g>
  <text style="stroke:none;fill:black;font-family:sans-serif;font-size:13;font-weight:bold;" transform="matrix(1 0 0 1 263 1953)">Design Variations</text>
  <text style="stroke:none;fill:black;font-family:sans-serif;font-size:13;" transform="matrix(1 0 0 1 263 1971)">Symbols are supported in up to nine weights and three scales.</text>
  <text style="stroke:none;fill:black;font-family:sans-serif;font-size:13;" transform="matrix(1 0 0 1 263 1989)">For optimal layout with text and other symbols, vertically align</text>
  <text style="stroke:none;fill:black;font-family:sans-serif;font-size:13;" transform="matrix(1 0 0 1 263 2007)">symbols with the adjacent text.</text>
  <line style="fill:none;stroke:#00AEEF;stroke-width:0.5;opacity:1.0;" x1="776" x2="776" y1="1919" y2="1933"/>
  <g transform="matrix(1 0 0 1 776 1933)">
   <path d="M3.31055 0.15625Q3.70117 0.15625 3.91602-0.00976562Q4.13086-0.175781 4.26758-0.585938L5.52734-4.0332L11.2891-4.0332L12.5488-0.585938Q12.6855-0.175781 12.9004-0.00976562Q13.1152 0.15625 13.4961 0.15625Q13.8867 0.15625 14.1162-0.0585938Q14.3457-0.273438 14.3457-0.644531Q14.3457-0.869141 14.2383-1.17188L9.6582-13.3691Q9.48242-13.8184 9.17969-14.043Q8.87695-14.2676 8.4082-14.2676Q7.5-14.2676 7.17773-13.3789L2.59766-1.16211Q2.49023-0.859375 2.49023-0.634766Q2.49023-0.263672 2.70996-0.0537109Q2.92969 0.15625 3.31055 0.15625ZM6.00586-5.51758L8.37891-12.0898L8.42773-12.0898L10.8008-5.51758Z"/>
  </g>
  <line style="fill:none;stroke:#00AEEF;stroke-width:0.5;opacity:1.0;" x1="793.197" x2="793.197" y1="1919" y2="1933"/>
  <text style="stroke:none;fill:black;font-family:sans-serif;font-size:13;font-weight:bold;" transform="matrix(1 0 0 1 776 1953)">Margins</text>
  <text style="stroke:none;fill:black;font-family:sans-serif;font-size:13;" transform="matrix(1 0 0 1 776 1971)">Leading and trailing margins on the left and right side of each symbol</text>
  <text style="stroke:none;fill:black;font-family:sans-serif;font-size:13;" transform="matrix(1 0 0 1 776 1989)">can be adjusted by modifying the x-location of the margin guidelines.</text>
  <text style="stroke:none;fill:black;font-family:sans-serif;font-size:13;" transform="matrix(1 0 0 1 776 2007)">Modifications are automatically applied proportionally to all</text>
  <text style="stroke:none;fill:black;font-family:sans-serif;font-size:13;" transform="matrix(1 0 0 1 776 2025)">scales and weights.</text>
  <g transform="matrix(1 0 0 1 1289 1933)">
   <path d="M2.8418 1.86523L4.54102 3.57422Q5.18555 4.22852 5.90332 4.17969Q6.62109 4.13086 7.31445 3.35938L18.0078-8.42773L17.041-9.4043L6.42578 2.27539Q6.16211 2.57812 5.89355 2.61719Q5.625 2.65625 5.27344 2.30469L4.10156 1.14258Q3.75 0.791016 3.79395 0.522461Q3.83789 0.253906 4.14062-0.0195312L15.6152-10.8203L14.6387-11.7871L3.04688-0.898438Q2.30469-0.214844 2.25098 0.498047Q2.19727 1.21094 2.8418 1.86523ZM9.25781-16.3281Q8.94531-16.0254 8.90625-15.6348Q8.86719-15.2441 9.04297-14.9512Q9.21875-14.6777 9.55566-14.541Q9.89258-14.4043 10.3809-14.5215Q11.4746-14.7754 12.5977-14.7314Q13.7207-14.6875 14.7949-13.9844L14.209-12.5293Q13.9551-11.9043 14.0674-11.4404Q14.1797-10.9766 14.5801-10.5664L16.875-8.25195Q17.2363-7.88086 17.5781-7.82227Q17.9199-7.76367 18.3398-7.8418L19.4043-8.03711L20.0684-7.36328L20.0293-6.80664Q20-6.43555 20.1221-6.12305Q20.2441-5.81055 20.6055-5.44922L21.3672-4.70703Q21.7285-4.3457 22.1533-4.33105Q22.5781-4.31641 22.9297-4.66797L25.8398-7.58789Q26.1914-7.93945 26.1816-8.35449Q26.1719-8.76953 25.8105-9.13086L25.0391-9.89258Q24.6875-10.2539 24.3799-10.3857Q24.0723-10.5176 23.7109-10.4883L23.1348-10.4395L22.4902-11.0742L22.7344-12.1973Q22.832-12.6172 22.6953-12.9834Q22.5586-13.3496 22.1191-13.7891L19.9219-15.9766Q18.6719-17.2168 17.2607-17.8369Q15.8496-18.457 14.4189-18.4814Q12.9883-18.5059 11.665-17.959Q10.3418-17.4121 9.25781-16.3281ZM10.752-15.957Q11.6602-16.6211 12.7002-16.9043Q13.7402-17.1875 14.8047-17.085Q15.8691-16.9824 16.8701-16.5137Q17.8711-16.0449 18.7012-15.2051L21.1328-12.793Q21.3086-12.6172 21.3525-12.4512Q21.3965-12.2852 21.3379-12.0312L21.0156-10.5469L22.5195-9.0625L23.5059-9.12109Q23.6914-9.13086 23.7891-9.09668Q23.8867-9.0625 24.0332-8.91602L24.6094-8.33984L22.168-5.89844L21.5918-6.47461Q21.4453-6.62109 21.4062-6.71875Q21.3672-6.81641 21.377-7.01172L21.4453-7.98828L19.9512-9.47266L18.4277-9.21875Q18.1836-9.16992 18.042-9.2041Q17.9004-9.23828 17.7148-9.41406L15.7129-11.416Q15.5176-11.5918 15.4932-11.7529Q15.4688-11.9141 15.5859-12.1875L16.4648-14.2773Q15.293-15.3711 13.8281-15.791Q12.3633-16.2109 10.8398-15.7617Q10.7227-15.7324 10.6885-15.8057Q10.6543-15.8789 10.752-15.957Z"/>
  </g>
  <text style="stroke:none;fill:black;font-family:sans-serif;font-size:13;font-weight:bold;" transform="matrix(1 0 0 1 1289 1953)">Exporting</text>
  <text style="stroke:none;fill:black;font-family:sans-serif;font-size:13;" transform="matrix(1 0 0 1 1289 1971)">Symbols should be outlined when exporting to ensure the</text>
  <text style="stroke:none;fill:black;font-family:sans-serif;font-size:13;" transform="matrix(1 0 0 1 1289 1989)">design is preserved when submitting to Xcode.</text>
  <text id="template-version" style="stroke:none;fill:black;font-family:sans-serif;font-size:13;text-anchor:end;" transform="matrix(1 0 0 1 3036 1933)">Template v.3.0</text>
  <text style="stroke:none;fill:black;font-family:sans-serif;font-size:13;text-anchor:end;" transform="matrix(1 0 0 1 3036 1951)">Requires Xcode 13 or greater</text>
  <text id="descriptive-name" style="stroke:none;fill:black;font-family:sans-serif;font-size:13;text-anchor:end;" transform="matrix(1 0 0 1 3036 1969)">Generated from hourglass</text>
  <text style="stroke:none;fill:black;font-family:sans-serif;font-size:13;text-anchor:end;" transform="matrix(1 0 0 1 3036 1987)">Typeset at 100 points</text>
  <text style="stroke:none;fill:black;font-family:sans-serif;font-size:13;" transform="matrix(1 0 0 1 263 726)">Small</text>
  <text style="stroke:none;fill:black;font-family:sans-serif;font-size:13;" transform="matrix(1 0 0 1 263 1156)">Medium</text>
  <text style="stroke:none;fill:black;font-family:sans-serif;font-size:13;" transform="matrix(1 0 0 1 263 1586)">Large</text>
 </g>
 <g id="Guides">
  <g id="H-reference" style="fill:#27AAE1;stroke:none;" transform="matrix(1 0 0 1 339 696)">
   <path d="M0.976562 0L3.66211 0L29.3457-67.1387L30.0293-67.1387L30.0293-70.459L28.125-70.459ZM11.6699-24.4629L46.9727-24.4629L46.2402-26.709L12.4512-26.709ZM55.127 0L57.7637 0L30.6152-70.459L29.4434-70.459L29.4434-67.1387Z"/>
  </g>
  <line id="Baseline-S" style="fill:none;stroke:#27AAE1;opacity:1;stroke-width:0.5;" x1="263" x2="3036" y1="696" y2="696"/>
  <line id="Capline-S" style="fill:none;stroke:#27AAE1;opacity:1;stroke-width:0.5;" x1="263" x2="3036" y1="625.541" y2="625.541"/>
  <g id="H-reference" style="fill:#27AAE1;stroke:none;" transform="matrix(1 0 0 1 339 1126)">
   <path d="M0.976562 0L3.66211 0L29.3457-67.1387L30.0293-67.1387L30.0293-70.459L28.125-70.459ZM11.6699-24.4629L46.9727-24.4629L46.2402-26.709L12.4512-26.709ZM55.127 0L57.7637 0L30.6152-70.459L29.4434-70.459L29.4434-67.1387Z"/>
  </g>
  <line id="Baseline-M" style="fill:none;stroke:#27AAE1;opacity:1;stroke-width:0.5;" x1="263" x2="3036" y1="1126" y2="1126"/>
  <line id="Capline-M" style="fill:none;stroke:#27AAE1;opacity:1;stroke-width:0.5;" x1="263" x2="3036" y1="1055.54" y2="1055.54"/>
  <g id="H-reference" style="fill:#27AAE1;stroke:none;" transform="matrix(1 0 0 1 339 1556)">
   <path d="M0.976562 0L3.66211 0L29.3457-67.1387L30.0293-67.1387L30.0293-70.459L28.125-70.459ZM11.6699-24.4629L46.9727-24.4629L46.2402-26.709L12.4512-26.709ZM55.127 0L57.7637 0L30.6152-70.459L29.4434-70.459L29.4434-67.1387Z"/>
  </g>
  <line id="Baseline-L" style="fill:none;stroke:#27AAE1;opacity:1;stroke-width:0.5;" x1="263" x2="3036" y1="1556" y2="1556"/>
  <line id="Capline-L" style="fill:none;stroke:#27AAE1;opacity:1;stroke-width:0.5;" x1="263" x2="3036" y1="1485.54" y2="1485.54"/>
  <line id="left-margin-Regular-M" style="fill:none;stroke:#00AEEF;stroke-width:0.5;opacity:1.0;" x1="1408.78" x2="1408.78" y1="1030.79" y2="1150.12"/>
  <line id="right-margin-Regular-M" style="fill:none;stroke:#00AEEF;stroke-width:0.5;opacity:1.0;" x1="1490.91" x2="1490.91" y1="1030.79" y2="1150.12"/>
 </g>
 <g id="Symbols">
  <g id="Black-L" transform="matrix(1 0 0 1 2877.22 1556)">
   <path d="M29.7852 26.123L82.5684 26.123Q88.916 26.123 92.6025 22.4854Q96.2891 18.8477 96.2891 12.3535L96.2891 11.377Q96.2891 6.29883 94.5068 1.3916Q92.7246-3.51562 89.917-8.03223Q87.1094-12.5488 83.9111-16.4307Q80.7129-20.3125 77.832-23.291Q74.9512-26.2695 73.0469-28.125Q69.7754-31.4453 69.7998-35.4004Q69.8242-39.3555 73.0469-42.5293Q74.9512-44.4336 77.832-47.4121Q80.7129-50.3906 83.9111-54.248Q87.1094-58.1055 89.917-62.6221Q92.7246-67.1387 94.5068-72.0703Q96.2891-77.002 96.2891-82.0801L96.2891-82.8613Q96.2891-89.4043 92.6025-93.042Q88.916-96.6797 82.5684-96.6797L29.7852-96.6797Q23.4375-96.6797 19.751-93.042Q16.0645-89.4043 16.0645-82.8613L16.0645-82.0801Q16.0645-77.002 17.8467-72.0703Q19.6289-67.1387 22.4365-62.6221Q25.2441-58.1055 28.4424-54.248Q31.6406-50.3906 34.5215-47.4121Q37.4023-44.4336 39.2578-42.5293Q42.4805-39.3555 42.5293-35.4004Q42.5781-31.4453 39.2578-28.125Q37.4023-26.2695 34.5215-23.291Q31.6406-20.3125 28.4424-16.4307Q25.2441-12.5488 22.4365-8.03223Q19.6289-3.51562 17.8467 1.3916Q16.0645 6.29883 16.0645 11.377L16.0645 12.3535Q16.0645 18.8477 19.751 22.4854Q23.4375 26.123 29.7852 26.123ZM36.7676 11.8164Q35.0586 11.8164 34.1064 10.6934Q33.1543 9.57031 33.2031 8.05664Q33.252 6.54297 34.4238 5.37109L50.4395-10.6934Q51.8555-12.1582 52.2705-12.9395Q52.6855-13.7207 52.6855-16.1621L52.6855-39.2578Q52.6855-42.1875 51.8311-44.2383Q50.9766-46.2891 48.877-48.2422Q46.5332-50.3906 43.335-53.3936Q40.1367-56.3965 37.8418-58.9355Q36.1328-60.791 36.7432-62.8174Q37.3535-64.8438 40.0391-64.8438L72.3145-64.8438Q74.9512-64.8438 75.5859-62.8174Q76.2207-60.791 74.5117-58.9355Q72.168-56.3965 68.9941-53.3936Q65.8203-50.3906 63.4277-48.2422Q61.377-46.2891 60.5225-44.2383Q59.668-42.1875 59.668-39.2578L59.668-16.1621Q59.668-13.7207 60.0586-12.9395Q60.4492-12.1582 61.8652-10.6934L77.8809 5.37109Q79.1016 6.54297 79.1504 8.05664Q79.1992 9.57031 78.2471 10.6934Q77.2949 11.8164 75.5859 11.8164Z"/>
  </g>
  <g id="Heavy-L" transform="matrix(1 0 0 1 2581.37 1556)">
   <path d="M28.8086 25.1465L81.8359 25.1465Q87.7441 25.1465 91.1621 21.7773Q94.5801 18.4082 94.5801 12.3535L94.5801 11.2305Q94.5801 6.29883 92.8223 1.48926Q91.0645-3.32031 88.2568-7.83691Q85.4492-12.3535 82.2021-16.2842Q78.9551-20.2148 75.9521-23.3398Q72.9492-26.4648 70.8008-28.5156Q67.6758-31.7383 67.7002-35.4248Q67.7246-39.1113 70.8008-42.1387Q72.9492-44.2383 75.9521-47.3633Q78.9551-50.4883 82.2021-54.3945Q85.4492-58.3008 88.2568-62.8174Q91.0645-67.334 92.8223-72.168Q94.5801-77.002 94.5801-81.9336L94.5801-82.8613Q94.5801-88.9648 91.1621-92.334Q87.7441-95.7031 81.8359-95.7031L28.8086-95.7031Q22.9492-95.7031 19.5068-92.334Q16.0645-88.9648 16.0645-82.8613L16.0645-81.9336Q16.0645-77.002 17.8223-72.168Q19.5801-67.334 22.4121-62.8174Q25.2441-58.3008 28.4668-54.3945Q31.6895-50.4883 34.6924-47.3633Q37.6953-44.2383 39.7949-42.1387Q42.8711-39.1113 42.9199-35.4248Q42.9688-31.7383 39.7949-28.5156Q37.6953-26.4648 34.6924-23.3398Q31.6895-20.2148 28.4668-16.2842Q25.2441-12.3535 22.4121-7.83691Q19.5801-3.32031 17.8223 1.48926Q16.0645 6.29883 16.0645 11.2305L16.0645 12.3535Q16.0645 18.4082 19.5068 21.7773Q22.9492 25.1465 28.8086 25.1465ZM35.2539 12.4023Q33.6426 12.4023 32.7637 11.3525Q31.8848 10.3027 31.958 8.91113Q32.0312 7.51953 33.1055 6.39648L50.2441-10.5957Q51.4648-11.8164 51.8311-12.5Q52.1973-13.1836 52.1973-15.2344L52.1973-39.3066Q52.1973-41.9922 51.416-43.8232Q50.6348-45.6543 48.7305-47.4121Q46.0938-49.7559 42.6758-52.9541Q39.2578-56.1523 36.8164-58.8867Q35.2539-60.5957 35.8154-62.4023Q36.377-64.209 38.7207-64.209L71.9238-64.209Q74.2676-64.209 74.8291-62.4023Q75.3906-60.5957 73.877-58.8867Q71.3379-56.1523 67.9443-52.9541Q64.5508-49.7559 61.9141-47.4121Q60.0098-45.6543 59.2529-43.8232Q58.4961-41.9922 58.4961-39.3066L58.4961-15.2344Q58.4961-13.1836 58.8379-12.5Q59.1797-11.8164 60.4004-10.5957L77.4902 6.39648Q78.6621 7.51953 78.7109 8.91113Q78.7598 10.3027 77.8809 11.3525Q77.002 12.4023 75.4395 12.4023Z"/>
  </g>
  <g id="Bold-L" transform="matrix(1 0 0 1 2285.58 1556)">
   <path d="M27.7832 24.0723L81.0059 24.0723Q86.4258 24.0723 89.5752 20.9961Q92.7246 17.9199 92.7246 12.3047L92.7246 11.084Q92.7246 6.34766 90.9668 1.61133Q89.209-3.125 86.4014-7.61719Q83.5938-12.1094 80.2979-16.0889Q77.002-20.0684 73.8525-23.3643Q70.7031-26.6602 68.3594-28.9551Q65.2832-32.0312 65.3564-35.4248Q65.4297-38.8184 68.3594-41.748Q70.7031-44.0918 73.8525-47.3633Q77.002-50.6348 80.2979-54.6143Q83.5938-58.5938 86.4014-63.0615Q89.209-67.5293 90.9668-72.29Q92.7246-77.0508 92.7246-81.7871L92.7246-82.8613Q92.7246-88.4766 89.5752-91.5527Q86.4258-94.6289 81.0059-94.6289L27.7832-94.6289Q22.3633-94.6289 19.2139-91.5527Q16.0645-88.4766 16.0645-82.8613L16.0645-81.7871Q16.0645-77.0508 17.8223-72.29Q19.5801-67.5293 22.3877-63.0615Q25.1953-58.5938 28.4912-54.6143Q31.7871-50.6348 34.9365-47.3633Q38.0859-44.0918 40.3809-41.748Q43.3105-38.8184 43.3838-35.4248Q43.457-32.0312 40.3809-28.9551Q38.0859-26.6602 34.9365-23.3643Q31.7871-20.0684 28.4912-16.0889Q25.1953-12.1094 22.3877-7.61719Q19.5801-3.125 17.8223 1.61133Q16.0645 6.34766 16.0645 11.084L16.0645 12.3047Q16.0645 17.9199 19.2139 20.9961Q22.3633 24.0723 27.7832 24.0723ZM33.5449 13.0371Q32.0801 13.0371 31.2988 12.085Q30.5176 11.1328 30.5908 9.86328Q30.6641 8.59375 31.6406 7.56836L50-10.4492Q50.9766-11.4746 51.2939-12.0605Q51.6113-12.6465 51.6113-14.2578L51.6113-39.3555Q51.6113-41.748 50.9521-43.335Q50.293-44.9219 48.584-46.4844Q45.6543-49.0723 41.9922-52.4902Q38.3301-55.9082 35.6445-58.8379Q34.2285-60.3516 34.7656-61.9141Q35.3027-63.4766 37.3047-63.4766L71.4844-63.4766Q73.4863-63.4766 73.999-61.9141Q74.5117-60.3516 73.1445-58.8379Q70.4102-55.9082 66.7725-52.4902Q63.1348-49.0723 60.2051-46.4844Q58.4473-44.9219 57.8125-43.335Q57.1777-41.748 57.1777-39.3555L57.1777-14.2578Q57.1777-12.6465 57.4707-12.0605Q57.7637-11.4746 58.7891-10.4492L77.0996 7.56836Q78.125 8.59375 78.1982 9.86328Q78.2715 11.1328 77.4902 12.085Q76.709 13.0371 75.2441 13.0371Z"/>
  </g>
  <g id="Semibold-L" transform="matrix(1 0 0 1 1989.53 1556)">
   <path d="M27.002 23.3398L80.4199 23.3398Q85.498 23.3398 88.4521 20.4346Q91.4062 17.5293 91.4062 12.3047L91.4062 10.9863Q91.4062 6.34766 89.6484 1.68457Q87.8906-2.97852 85.083-7.44629Q82.2754-11.9141 78.9551-15.9424Q75.6348-19.9707 72.3877-23.3643Q69.1406-26.7578 66.6016-29.248Q63.6719-32.2266 63.7451-35.4248Q63.8184-38.623 66.6016-41.4062Q69.1406-43.9453 72.3877-47.3145Q75.6348-50.6836 78.9551-54.7119Q82.2754-58.7402 85.083-63.208Q87.8906-67.6758 89.6484-72.3633Q91.4062-77.0508 91.4062-81.6895L91.4062-82.8125Q91.4062-88.0859 88.4521-90.9668Q85.498-93.8477 80.4199-93.8477L27.002-93.8477Q21.9727-93.8477 19.0186-90.9668Q16.0645-88.0859 16.0645-82.8125L16.0645-81.6895Q16.0645-77.0508 17.7979-72.3633Q19.5312-67.6758 22.3633-63.208Q25.1953-58.7402 28.4912-54.7119Q31.7871-50.6836 35.0342-47.3145Q38.2812-43.9453 40.7715-41.4062Q43.6035-38.623 43.7012-35.4248Q43.7988-32.2266 40.7715-29.248Q38.2812-26.7578 35.0342-23.3643Q31.7871-19.9707 28.4912-15.9424Q25.1953-11.9141 22.3633-7.44629Q19.5312-2.97852 17.7979 1.68457Q16.0645 6.34766 16.0645 10.9863L16.0645 12.3047Q16.0645 17.5293 19.0186 20.4346Q21.9727 23.3398 27.002 23.3398ZM32.3242 13.4277Q30.957 13.4277 30.249 12.5488Q29.541 11.6699 29.6143 10.498Q29.6875 9.32617 30.6152 8.34961L49.8047-10.3516Q50.6348-11.2305 50.9277-11.7188Q51.2207-12.207 51.2207-13.5254L51.2207-39.3555Q51.2207-41.5527 50.6348-42.9932Q50.0488-44.4336 48.4375-45.8496Q45.3125-48.584 41.4795-52.1484Q37.6465-55.7129 34.8633-58.7891Q33.5449-60.2051 34.0332-61.5723Q34.5215-62.9395 36.2793-62.9395L71.1426-62.9395Q72.9004-62.9395 73.3887-61.5723Q73.877-60.2051 72.6074-58.7891Q69.7754-55.7129 65.9424-52.1484Q62.1094-48.584 58.9844-45.8496Q57.373-44.4336 56.8115-42.9932Q56.25-41.5527 56.25-39.3555L56.25-13.5254Q56.25-12.207 56.5186-11.7188Q56.7871-11.2305 57.6172-10.3516L76.7578 8.34961Q77.7832 9.32617 77.8564 10.498Q77.9297 11.6699 77.2217 12.5488Q76.5137 13.4277 75.0977 13.4277Z"/>
  </g>
  <g id="Medium-L" transform="matrix(1 0 0 1 1693.33 1556)">
   <path d="M26.4648 22.7539L80.0293 22.7539Q84.8145 22.7539 87.5977 20.0195Q90.3809 17.2852 90.3809 12.2559L90.3809 10.8887Q90.3809 6.34766 88.6475 1.7334Q86.9141-2.88086 84.1064-7.32422Q81.2988-11.7676 77.9541-15.8447Q74.6094-19.9219 71.2891-23.3887Q67.9688-26.8555 65.332-29.4922Q62.4023-32.4219 62.5-35.4492Q62.5977-38.4766 65.332-41.2109Q67.9688-43.8477 71.2891-47.29Q74.6094-50.7324 77.9541-54.8096Q81.2988-58.8867 84.1064-63.3301Q86.9141-67.7734 88.6475-72.4121Q90.3809-77.0508 90.3809-81.5918L90.3809-82.8125Q90.3809-87.8418 87.5977-90.5518Q84.8145-93.2617 80.0293-93.2617L26.4648-93.2617Q21.6797-93.2617 18.8721-90.5518Q16.0645-87.8418 16.0645-82.8125L16.0645-81.5918Q16.0645-77.0508 17.7979-72.4121Q19.5312-67.7734 22.3389-63.3301Q25.1465-58.8867 28.4912-54.8096Q31.8359-50.7324 35.1562-47.29Q38.4766-43.8477 41.1133-41.2109Q43.8477-38.4766 43.9453-35.4492Q44.043-32.4219 41.1133-29.4922Q38.4766-26.8555 35.1562-23.3887Q31.8359-19.9219 28.4912-15.8447Q25.1465-11.7676 22.3389-7.32422Q19.5312-2.88086 17.7979 1.7334Q16.0645 6.34766 16.0645 10.8887L16.0645 12.2559Q16.0645 17.2852 18.8721 20.0195Q21.6797 22.7539 26.4648 22.7539ZM31.4453 13.7695Q30.127 13.7695 29.4678 12.9395Q28.8086 12.1094 28.8818 10.9863Q28.9551 9.86328 29.8828 8.98438L49.6582-10.3027Q50.3906-11.0352 50.6592-11.4746Q50.9277-11.9141 50.9277-12.9883L50.9277-39.3555Q50.9277-41.4062 50.3906-42.7246Q49.8535-44.043 48.3398-45.3613Q45.0684-48.2422 41.0889-51.9287Q37.1094-55.6152 34.2285-58.7891Q33.0078-60.0586 33.4717-61.3037Q33.9355-62.5488 35.498-62.5488L70.8984-62.5488Q72.5098-62.5488 72.9736-61.3037Q73.4375-60.0586 72.2168-58.7891Q69.2871-55.6152 65.332-51.9287Q61.377-48.2422 58.1055-45.3613Q56.5918-44.043 56.0791-42.7246Q55.5664-41.4062 55.5664-39.3555L55.5664-12.9883Q55.5664-11.9141 55.8105-11.4746Q56.0547-11.0352 56.7871-10.3027L76.5625 8.98438Q77.4902 9.86328 77.5879 10.9863Q77.6855 12.1094 77.002 12.9395Q76.3184 13.7695 75.0488 13.7695Z"/>
  </g>
  <g id="Regular-L" transform="matrix(1 0 0 1 1397.26 1556)">
   <path d="M25.7324 22.0215L79.4434 22.0215Q83.8867 22.0215 86.499 19.4824Q89.1113 16.9434 89.1113 12.2559L89.1113 10.791Q89.1113 6.34766 87.3779 1.80664Q85.6445-2.73438 82.8369-7.17773Q80.0293-11.6211 76.6357-15.7227Q73.2422-19.8242 69.8486-23.4131Q66.4551-27.002 63.623-29.7852Q60.791-32.6172 60.8887-35.4492Q60.9863-38.2812 63.623-40.918Q66.4551-43.7012 69.8486-47.2656Q73.2422-50.8301 76.6357-54.9316Q80.0293-59.0332 82.8369-63.4766Q85.6445-67.9199 87.3779-72.4854Q89.1113-77.0508 89.1113-81.4941L89.1113-82.8125Q89.1113-87.5 86.499-90.0146Q83.8867-92.5293 79.4434-92.5293L25.7324-92.5293Q21.2891-92.5293 18.6768-90.0146Q16.0645-87.5 16.0645-82.8125L16.0645-81.4941Q16.0645-77.0508 17.7734-72.4854Q19.4824-67.9199 22.3145-63.4766Q25.1465-59.0332 28.5156-54.9316Q31.8848-50.8301 35.3027-47.2656Q38.7207-43.7012 41.5039-40.918Q44.1406-38.2812 44.2383-35.4492Q44.3359-32.6172 41.5039-29.7852Q38.7207-27.002 35.3027-23.4131Q31.8848-19.8242 28.5156-15.7227Q25.1465-11.6211 22.3145-7.17773Q19.4824-2.73438 17.7734 1.80664Q16.0645 6.34766 16.0645 10.791L16.0645 12.2559Q16.0645 16.9434 18.6768 19.4824Q21.2891 22.0215 25.7324 22.0215ZM30.2734 14.209Q29.0527 14.209 28.4424 13.4277Q27.832 12.6465 27.9297 11.6211Q28.0273 10.5957 28.8574 9.76562L49.5117-10.2051Q50.0977-10.791 50.3174-11.1572Q50.5371-11.5234 50.5371-12.3047L50.5371-39.4043Q50.5371-41.2598 50.0732-42.4072Q49.6094-43.5547 48.2422-44.7266Q44.7266-47.7539 40.6006-51.5869Q36.4746-55.4199 33.4473-58.7402Q32.3242-59.9121 32.7637-60.9863Q33.2031-62.0605 34.5215-62.0605L70.6055-62.0605Q71.9727-62.0605 72.3877-60.9863Q72.8027-59.9121 71.7285-58.7402Q68.6523-55.4199 64.5264-51.5869Q60.4004-47.7539 56.9336-44.7266Q55.5176-43.5547 55.0781-42.4072Q54.6387-41.2598 54.6387-39.4043L54.6387-12.3047Q54.6387-11.5234 54.8584-11.1572Q55.0781-10.791 55.6641-10.2051L76.2695 9.76562Q77.1484 10.5957 77.2461 11.6211Q77.3438 12.6465 76.7334 13.4277Q76.123 14.209 74.9023 14.209Z"/>
  </g>
  <g id="Light-L" transform="matrix(1 0 0 1 1101.13 1556)">
   <path d="M24.9023 21.0938L79.1504 21.0938Q83.1543 21.0938 85.5469 18.75Q87.9395 16.4062 87.9395 12.207L87.9395 10.4492Q87.9395 6.20117 86.2305 1.70898Q84.5215-2.7832 81.665-7.27539Q78.8086-11.7676 75.3418-15.9912Q71.875-20.2148 68.335-23.999Q64.7949-27.7832 61.7676-30.8105Q59.4727-33.1055 59.5215-35.4248Q59.5703-37.7441 61.7676-39.8926Q64.7949-42.9199 68.335-46.6797Q71.875-50.4395 75.3418-54.6631Q78.8086-58.8867 81.665-63.3789Q84.5215-67.8711 86.2305-72.3877Q87.9395-76.9043 87.9395-81.1523L87.9395-82.7637Q87.9395-86.9629 85.5469-89.2822Q83.1543-91.6016 79.1504-91.6016L24.9023-91.6016Q20.8496-91.6016 18.457-89.2822Q16.0645-86.9629 16.0645-82.7637L16.0645-81.1523Q16.0645-76.9043 17.7734-72.3877Q19.4824-67.8711 22.3389-63.3789Q25.1953-58.8867 28.6377-54.6631Q32.0801-50.4395 35.6445-46.6797Q39.209-42.9199 42.2363-39.8926Q44.4336-37.7441 44.4824-35.4248Q44.5312-33.1055 42.2363-30.8105Q39.209-27.7832 35.6445-23.999Q32.0801-20.2148 28.6377-15.9912Q25.1953-11.7676 22.3389-7.27539Q19.4824-2.7832 17.7734 1.70898Q16.0645 6.20117 16.0645 10.4492L16.0645 12.207Q16.0645 16.4062 18.457 18.75Q20.8496 21.0938 24.9023 21.0938ZM29.0039 14.4043Q27.9785 14.4043 27.417 13.7451Q26.8555 13.0859 26.9287 12.1826Q27.002 11.2793 27.7832 10.498L49.1211-10.5957Q49.7559-11.2305 49.9512-11.6211Q50.1465-12.0117 50.1465-12.793L50.1465-38.7695Q50.1465-40.2832 49.7803-41.1621Q49.4141-42.041 48.3398-42.9688Q44.4336-46.4355 40.0879-50.6592Q35.7422-54.8828 32.5195-58.5449Q31.5918-59.6191 31.9824-60.5469Q32.373-61.4746 33.4961-61.4746L70.5078-61.4746Q71.6797-61.4746 72.0459-60.5469Q72.4121-59.6191 71.4844-58.5449Q68.2129-54.8828 63.8916-50.6592Q59.5703-46.4355 55.7129-42.9688Q54.541-42.041 54.2236-41.1621Q53.9062-40.2832 53.9062-38.7695L53.9062-12.793Q53.9062-12.0117 54.1016-11.6211Q54.2969-11.2305 54.9316-10.5957L76.2207 10.498Q77.0508 11.2793 77.0996 12.1826Q77.1484 13.0859 76.6113 13.7451Q76.0742 14.4043 75.0488 14.4043Z"/>
  </g>
  <g id="Thin-L" transform="matrix(1 0 0 1 805.177 1556)">
   <path d="M23.7793 19.9219L78.7598 19.9219Q82.1777 19.9219 84.3018 17.7979Q86.4258 15.6738 86.4258 12.207L86.4258 9.96094Q86.4258 5.95703 84.7168 1.53809Q83.0078-2.88086 80.1025-7.39746Q77.1973-11.9141 73.6572-16.333Q70.1172-20.752 66.3818-24.7803Q62.6465-28.8086 59.2773-32.1777Q57.7148-33.7402 57.7148-35.3516Q57.7148-36.9629 59.2773-38.5254Q62.6465-41.8945 66.3818-45.8984Q70.1172-49.9023 73.6572-54.3213Q77.1973-58.7402 80.1025-63.2812Q83.0078-67.8223 84.7168-72.2412Q86.4258-76.6602 86.4258-80.6641L86.4258-82.7637Q86.4258-86.2305 84.3018-88.3301Q82.1777-90.4297 78.7598-90.4297L23.7793-90.4297Q20.3125-90.4297 18.1885-88.3301Q16.0645-86.2305 16.0645-82.7637L16.0645-80.6641Q16.0645-76.6602 17.7734-72.2412Q19.4824-67.8223 22.3877-63.2812Q25.293-58.7402 28.833-54.3213Q32.373-49.9023 36.1328-45.8984Q39.8926-41.8945 43.2129-38.5254Q44.7754-36.9629 44.7754-35.3516Q44.7754-33.7402 43.2129-32.1777Q39.8926-28.8086 36.1328-24.7803Q32.373-20.752 28.833-16.333Q25.293-11.9141 22.3877-7.39746Q19.4824-2.88086 17.7734 1.53809Q16.0645 5.95703 16.0645 9.96094L16.0645 12.207Q16.0645 15.6738 18.1885 17.7979Q20.3125 19.9219 23.7793 19.9219ZM27.2949 14.6484Q26.5137 14.6484 26.0498 14.1357Q25.5859 13.623 25.6104 12.8906Q25.6348 12.1582 26.3184 11.4746L48.584-11.1328Q49.2676-11.8164 49.4385-12.207Q49.6094-12.5977 49.6094-13.4766L49.6094-37.9395Q49.6094-38.916 49.3896-39.4775Q49.1699-40.0391 48.4375-40.6738Q44.043-44.6777 39.4287-49.4385Q34.8145-54.1992 31.3477-58.3008Q30.6152-59.2285 30.9326-59.9365Q31.25-60.6445 32.1777-60.6445L70.3125-60.6445Q71.2891-60.6445 71.582-59.9365Q71.875-59.2285 71.1426-58.3008Q67.6758-54.1992 63.0615-49.4385Q58.4473-44.6777 54.0527-40.6738Q53.3203-40.0391 53.125-39.4775Q52.9297-38.916 52.9297-37.9395L52.9297-13.4766Q52.9297-12.5977 53.1006-12.207Q53.2715-11.8164 53.9062-11.1328L76.1719 11.4746Q76.8555 12.1582 76.8799 12.8906Q76.9043 13.623 76.4404 14.1357Q75.9766 14.6484 75.1953 14.6484Z"/>
  </g>
  <g id="Ultralight-L" transform="matrix(1 0 0 1 508.857 1556)">
   <path d="M23.1934 19.2871L78.5156 19.2871Q81.6895 19.2871 83.667 17.3096Q85.6445 15.332 85.6445 12.1582L85.6445 9.76562Q85.6445 5.85938 83.9355 1.46484Q82.2266-2.92969 79.3213-7.4707Q76.416-12.0117 72.8027-16.5283Q69.1895-21.0449 65.3564-25.1953Q61.5234-29.3457 58.0078-32.8613Q56.7871-34.082 56.7871-35.3516Q56.7871-36.6211 58.0078-37.8418Q61.5234-41.3574 65.3564-45.4834Q69.1895-49.6094 72.8027-54.126Q76.416-58.6426 79.3213-63.208Q82.2266-67.7734 83.9355-72.168Q85.6445-76.5625 85.6445-80.4688L85.6445-82.7148Q85.6445-85.8887 83.667-87.8418Q81.6895-89.7949 78.5156-89.7949L23.1934-89.7949Q20.0195-89.7949 18.042-87.8418Q16.0645-85.8887 16.0645-82.7148L16.0645-80.4688Q16.0645-76.5625 17.7734-72.168Q19.4824-67.7734 22.4121-63.208Q25.3418-58.6426 28.9307-54.126Q32.5195-49.6094 36.377-45.4834Q40.2344-41.3574 43.75-37.8418Q44.9707-36.6211 44.9463-35.3516Q44.9219-34.082 43.75-32.8613Q40.2344-29.3457 36.377-25.1953Q32.5195-21.0449 28.9307-16.5283Q25.3418-12.0117 22.4121-7.4707Q19.4824-2.92969 17.7734 1.46484Q16.0645 5.85938 16.0645 9.76562L16.0645 12.1582Q16.0645 15.332 18.042 17.3096Q20.0195 19.2871 23.1934 19.2871ZM26.416 14.7949Q25.7812 14.7949 25.3418 14.3555Q24.9023 13.916 24.9268 13.2568Q24.9512 12.5977 25.5859 11.9629L48.3398-11.4258Q49.0234-12.1094 49.1699-12.5244Q49.3164-12.9395 49.3164-13.8184L49.3164-37.5488Q49.3164-38.2812 49.1943-38.6475Q49.0723-39.0137 48.5352-39.502Q43.8477-43.75 39.0869-48.7793Q34.3262-53.8086 30.7129-58.2031Q30.0781-58.9844 30.3711-59.6191Q30.6641-60.2539 31.4941-60.2539L70.2637-60.2539Q71.0449-60.2539 71.3379-59.6191Q71.6309-58.9844 70.9961-58.2031Q67.3828-53.8086 62.6221-48.7793Q57.8613-43.75 53.2227-39.502Q52.6367-39.0137 52.5146-38.6475Q52.3926-38.2812 52.3926-37.5488L52.3926-13.8184Q52.3926-12.9395 52.5635-12.5244Q52.7344-12.1094 53.418-11.4258L76.123 11.9629Q76.8066 12.5977 76.8066 13.2568Q76.8066 13.916 76.3672 14.3555Q75.9277 14.7949 75.293 14.7949Z"/>
  </g>
  <g id="Black-M" transform="matrix(1 0 0 1 2889.33 1126)">
   <path d="M23.6328 12.8906L64.502 12.8906Q69.6777 12.8906 72.6807 9.8877Q75.6836 6.88477 75.6836 1.61133L75.6836 0.878906Q75.6836-4.10156 73.584-8.8623Q71.4844-13.623 68.457-17.749Q65.4297-21.875 62.5-24.9756Q59.5703-28.0762 57.8613-29.7852Q55.4199-32.2266 55.4199-35.3271Q55.4199-38.4277 57.8613-40.8691Q59.5703-42.5293 62.5-45.6299Q65.4297-48.7305 68.457-52.8564Q71.4844-56.9824 73.584-61.7432Q75.6836-66.5039 75.6836-71.5332L75.6836-72.168Q75.6836-77.3926 72.6807-80.3955Q69.6777-83.3984 64.502-83.3984L23.6328-83.3984Q18.457-83.3984 15.4541-80.3955Q12.4512-77.3926 12.4512-72.168L12.4512-71.5332Q12.4512-66.5039 14.5508-61.7432Q16.6504-56.9824 19.6777-52.8564Q22.7051-48.7305 25.6348-45.6299Q28.5645-42.5293 30.2246-40.8691Q32.7148-38.4277 32.7148-35.3271Q32.7148-32.2266 30.2246-29.7852Q28.5645-28.0762 25.6348-24.9756Q22.7051-21.875 19.6777-17.749Q16.6504-13.623 14.5508-8.8623Q12.4512-4.10156 12.4512 0.878906L12.4512 1.61133Q12.4512 6.88477 15.4541 9.8877Q18.457 12.8906 23.6328 12.8906ZM29.3945 0.830078Q27.2949 0.830078 26.6357-1.0498Q25.9766-2.92969 27.4414-4.44336L39.1602-16.4551Q40.4297-17.7734 40.7715-18.457Q41.1133-19.1406 41.1133-21.3867L41.1133-38.0859Q41.1133-40.4785 40.4053-42.1631Q39.6973-43.8477 38.0371-45.4102Q36.3281-47.0215 33.96-49.3408Q31.5918-51.6602 29.8828-53.6133Q28.5156-55.127 29.0039-56.8359Q29.4922-58.5449 31.7871-58.5449L56.2988-58.5449Q58.5938-58.5449 59.1064-56.8359Q59.6191-55.127 58.252-53.6133Q56.4941-51.6602 54.1504-49.3408Q51.8066-47.0215 50.0488-45.4102Q48.3887-43.8477 47.7051-42.1631Q47.0215-40.4785 47.0215-38.0859L47.0215-21.3867Q47.0215-19.1406 47.3633-18.457Q47.7051-17.7734 48.9746-16.4551L60.6934-4.44336Q62.1582-2.92969 61.499-1.0498Q60.8398 0.830078 58.7402 0.830078Z"/>
  </g>
  <g id="Heavy-M" transform="matrix(1 0 0 1 2593.33 1126)">
   <path d="M22.8516 12.1094L63.8672 12.1094Q68.6523 12.1094 71.46 9.32617Q74.2676 6.54297 74.2676 1.61133L74.2676 0.830078Q74.2676-4.00391 72.1924-8.69141Q70.1172-13.3789 67.0654-17.5049Q64.0137-21.6309 61.0107-24.8291Q58.0078-28.0273 56.1035-29.9316Q53.6621-32.373 53.6865-35.3516Q53.7109-38.3301 56.1035-40.7227Q58.0078-42.5781 61.0107-45.7764Q64.0137-48.9746 67.0654-53.1006Q70.1172-57.2266 72.1924-61.9141Q74.2676-66.6016 74.2676-71.4844L74.2676-72.168Q74.2676-77.0996 71.46-79.8584Q68.6523-82.6172 63.8672-82.6172L22.8516-82.6172Q18.0664-82.6172 15.2588-79.8584Q12.4512-77.0996 12.4512-72.168L12.4512-71.4844Q12.4512-66.6016 14.5264-61.9141Q16.6016-57.2266 19.6533-53.1006Q22.7051-48.9746 25.708-45.7764Q28.7109-42.5781 30.5664-40.7227Q33.0566-38.3301 33.0811-35.3516Q33.1055-32.373 30.5664-29.9316Q28.7109-28.0273 25.708-24.8291Q22.7051-21.6309 19.6533-17.5049Q16.6016-13.3789 14.5264-8.69141Q12.4512-4.00391 12.4512 0.830078L12.4512 1.61133Q12.4512 6.54297 15.2588 9.32617Q18.0664 12.1094 22.8516 12.1094ZM28.1738 1.31836Q26.1719 1.31836 25.5859-0.439453Q25-2.19727 26.416-3.56445L39.0137-16.2598Q40.0879-17.3828 40.4053-17.9688Q40.7227-18.5547 40.7227-20.4102L40.7227-38.2812Q40.7227-40.4785 40.0879-42.0166Q39.4531-43.5547 37.8418-44.9707Q35.9863-46.7285 33.4473-49.1455Q30.9082-51.5625 29.0527-53.6133Q27.7832-54.9805 28.2471-56.5186Q28.7109-58.0566 30.7617-58.0566L55.957-58.0566Q57.959-58.0566 58.4473-56.5186Q58.9355-54.9805 57.666-53.6133Q55.7617-51.5625 53.2471-49.1455Q50.7324-46.7285 48.8281-44.9707Q47.2656-43.5547 46.6309-42.0166Q45.9961-40.4785 45.9961-38.2812L45.9961-20.4102Q45.9961-18.5547 46.3135-17.9688Q46.6309-17.3828 47.7051-16.2598L60.3027-3.56445Q61.7188-2.19727 61.1328-0.439453Q60.5469 1.31836 58.5449 1.31836Z"/>
  </g>
  <g id="Bold-M" transform="matrix(1 0 0 1 2297.4 1126)">
   <path d="M22.0215 11.2793L63.1348 11.2793Q67.5781 11.2793 70.1416 8.74023Q72.7051 6.20117 72.7051 1.61133L72.7051 0.78125Q72.7051-3.95508 70.6543-8.54492Q68.6035-13.1348 65.5518-17.2607Q62.5-21.3867 59.375-24.6826Q56.25-27.9785 54.1504-30.127Q51.6602-32.5684 51.709-35.376Q51.7578-38.1836 54.1504-40.5762Q56.25-42.6758 59.375-45.9717Q62.5-49.2676 65.5518-53.3691Q68.6035-57.4707 70.6543-62.085Q72.7051-66.6992 72.7051-71.4355L72.7051-72.168Q72.7051-76.7578 70.1416-79.2725Q67.5781-81.7871 63.1348-81.7871L22.0215-81.7871Q17.627-81.7871 15.0391-79.2725Q12.4512-76.7578 12.4512-72.168L12.4512-71.4355Q12.4512-66.6992 14.502-62.085Q16.5527-57.4707 19.6045-53.3691Q22.6562-49.2676 25.7812-45.9717Q28.9062-42.6758 31.0059-40.5762Q33.3984-38.1836 33.4473-35.376Q33.4961-32.5684 31.0059-30.127Q28.9062-27.9785 25.7812-24.6826Q22.6562-21.3867 19.6045-17.2607Q16.5527-13.1348 14.502-8.54492Q12.4512-3.95508 12.4512 0.78125L12.4512 1.61133Q12.4512 6.20117 15.0391 8.74023Q17.627 11.2793 22.0215 11.2793ZM26.8066 1.9043Q24.9512 1.9043 24.4629 0.268555Q23.9746-1.36719 25.2441-2.63672L38.8672-16.0645Q39.7461-16.8945 40.0146-17.3828Q40.2832-17.8711 40.2832-19.2871L40.2832-38.4766Q40.2832-40.4785 39.7217-41.8457Q39.1602-43.2129 37.6953-44.5312Q35.5957-46.3867 32.8613-48.9014Q30.127-51.416 28.1738-53.6133Q27.002-54.834 27.4414-56.1523Q27.8809-57.4707 29.5898-57.4707L55.5664-57.4707Q57.2754-57.4707 57.7148-56.1523Q58.1543-54.834 56.9824-53.6133Q54.9805-51.416 52.2705-48.9014Q49.5605-46.3867 47.4609-44.5312Q45.9961-43.2129 45.459-41.8457Q44.9219-40.4785 44.9219-38.4766L44.9219-19.2871Q44.9219-17.8711 45.166-17.3828Q45.4102-16.8945 46.2891-16.0645L59.9121-2.63672Q61.1816-1.36719 60.6934 0.268555Q60.2051 1.9043 58.3496 1.9043Z"/>
  </g>
  <g id="Semibold-M" transform="matrix(1 0 0 1 2001.25 1126)">
   <path d="M21.4355 10.6445L62.5977 10.6445Q66.7969 10.6445 69.1895 8.30078Q71.582 5.95703 71.582 1.61133L71.582 0.732422Q71.582-3.85742 69.5557-8.39844Q67.5293-12.9395 64.4531-17.0654Q61.377-21.1914 58.2031-24.5605Q55.0293-27.9297 52.7832-30.2246Q50.293-32.7148 50.3662-35.4004Q50.4395-38.0859 52.7832-40.4297Q55.0293-42.6758 58.2031-46.0449Q61.377-49.4141 64.4531-53.54Q67.5293-57.666 69.5557-62.207Q71.582-66.748 71.582-71.3867L71.582-72.1191Q71.582-76.5137 69.1895-78.8574Q66.7969-81.2012 62.5977-81.2012L21.4355-81.2012Q17.2852-81.2012 14.8682-78.8574Q12.4512-76.5137 12.4512-72.1191L12.4512-71.3867Q12.4512-66.748 14.4775-62.207Q16.5039-57.666 19.5801-53.54Q22.6562-49.4141 25.8301-46.0449Q29.0039-42.6758 31.25-40.4297Q33.6426-38.0859 33.7158-35.4004Q33.7891-32.7148 31.25-30.2246Q29.0039-27.9297 25.8301-24.5605Q22.6562-21.1914 19.5801-17.0654Q16.5039-12.9395 14.4775-8.39844Q12.4512-3.85742 12.4512 0.732422L12.4512 1.61133Q12.4512 5.95703 14.8682 8.30078Q17.2852 10.6445 21.4355 10.6445ZM25.8301 2.29492Q24.1211 2.29492 23.6572 0.756836Q23.1934-0.78125 24.4141-1.95312L38.7695-15.8691Q39.4531-16.5527 39.6973-16.9922Q39.9414-17.4316 39.9414-18.5059L39.9414-38.5742Q39.9414-40.4785 39.4287-41.7236Q38.916-42.9688 37.5488-44.1895Q35.3516-46.1426 32.4707-48.7305Q29.5898-51.3184 27.5391-53.5645Q26.4648-54.7363 26.8555-55.9082Q27.2461-57.0801 28.7598-57.0801L55.2734-57.0801Q56.7871-57.0801 57.2021-55.9082Q57.6172-54.7363 56.543-53.5645Q54.4434-51.3184 51.5869-48.7305Q48.7305-46.1426 46.4844-44.1895Q45.1172-42.9688 44.6289-41.7236Q44.1406-40.4785 44.1406-38.5742L44.1406-18.5059Q44.1406-17.4316 44.3604-16.9922Q44.5801-16.5527 45.2637-15.8691L59.6191-1.95312Q60.8398-0.78125 60.4004 0.756836Q59.9609 2.29492 58.2031 2.29492Z"/>
  </g>
  <g id="Medium-M" transform="matrix(1 0 0 1 1704.95 1126)">
   <path d="M20.9961 10.2051L62.207 10.2051Q66.2109 10.2051 68.4814 7.9834Q70.752 5.76172 70.752 1.61133L70.752 0.683594Q70.752-3.80859 68.7256-8.3252Q66.6992-12.8418 63.6475-16.9678Q60.5957-21.0938 57.3486-24.5117Q54.1016-27.9297 51.7578-30.3223Q49.2676-32.7637 49.3408-35.4004Q49.4141-38.0371 51.7578-40.332Q54.1016-42.7246 57.3486-46.1426Q60.5957-49.5605 63.6475-53.6621Q66.6992-57.7637 68.7256-62.2803Q70.752-66.7969 70.752-71.3379L70.752-72.1191Q70.752-76.3184 68.4814-78.54Q66.2109-80.7617 62.207-80.7617L20.9961-80.7617Q17.041-80.7617 14.7461-78.54Q12.4512-76.3184 12.4512-72.1191L12.4512-71.3379Q12.4512-66.7969 14.4775-62.2803Q16.5039-57.7637 19.5557-53.6621Q22.6074-49.5605 25.8545-46.1426Q29.1016-42.7246 31.4453-40.332Q33.8379-38.0371 33.9111-35.4004Q33.9844-32.7637 31.4453-30.3223Q29.1016-27.9297 25.8545-24.5117Q22.6074-21.0938 19.5557-16.9678Q16.5039-12.8418 14.4775-8.3252Q12.4512-3.80859 12.4512 0.683594L12.4512 1.61133Q12.4512 5.76172 14.7461 7.9834Q17.041 10.2051 20.9961 10.2051ZM25.0977 2.58789Q23.4375 2.58789 23.0469 1.09863Q22.6562-0.390625 23.7793-1.41602L38.6719-15.7715Q39.2578-16.3086 39.4775-16.6748Q39.6973-17.041 39.6973-17.9199L39.6973-38.6719Q39.6973-40.4785 39.2334-41.626Q38.7695-42.7734 37.4512-43.9453Q35.1074-45.9473 32.1533-48.6084Q29.1992-51.2695 27.0508-53.5645Q26.0254-54.6387 26.416-55.7129Q26.8066-56.7871 28.125-56.7871L55.0781-56.7871Q56.4453-56.7871 56.8359-55.7129Q57.2266-54.6387 56.1523-53.5645Q54.0039-51.2695 51.0742-48.6084Q48.1445-45.9473 45.752-43.9453Q44.4824-42.7734 44.0186-41.626Q43.5547-40.4785 43.5547-38.6719L43.5547-17.9199Q43.5547-17.041 43.75-16.6748Q43.9453-16.3086 44.5312-15.7715L59.4238-1.41602Q60.5469-0.390625 60.1807 1.09863Q59.8145 2.58789 58.1055 2.58789Z"/>
  </g>
  <g id="Regular-M" transform="matrix(1 0 0 1 1408.78 1126)">
   <path d="M20.4102 9.61914L61.7188 9.61914Q65.4297 9.61914 67.5537 7.56836Q69.6777 5.51758 69.6777 1.61133L69.6777 0.634766Q69.6777-3.75977 67.6758-8.20312Q65.6738-12.6465 62.5977-16.7725Q59.5215-20.8984 56.2256-24.3896Q52.9297-27.8809 50.3906-30.4199Q47.9004-32.9102 47.998-35.4248Q48.0957-37.9395 50.3906-40.2344Q52.9297-42.7734 56.2256-46.2646Q59.5215-49.7559 62.5977-53.8574Q65.6738-57.959 67.6758-62.4023Q69.6777-66.8457 69.6777-71.2891L69.6777-72.1191Q69.6777-76.0742 67.5537-78.125Q65.4297-80.1758 61.7188-80.1758L20.4102-80.1758Q16.748-80.1758 14.5996-78.125Q12.4512-76.0742 12.4512-72.1191L12.4512-71.2891Q12.4512-66.8457 14.4531-62.4023Q16.4551-57.959 19.5312-53.8574Q22.6074-49.7559 25.9033-46.2646Q29.1992-42.7734 31.7383-40.2344Q34.082-37.9395 34.1797-35.4248Q34.2773-32.9102 31.7383-30.4199Q29.1992-27.8809 25.9033-24.3896Q22.6074-20.8984 19.5312-16.7725Q16.4551-12.6465 14.4531-8.20312Q12.4512-3.75977 12.4512 0.634766L12.4512 1.61133Q12.4512 5.51758 14.5996 7.56836Q16.748 9.61914 20.4102 9.61914ZM24.1699 2.97852Q22.6074 2.97852 22.2656 1.58691Q21.9238 0.195312 22.998-0.78125L38.5742-15.625Q39.0137-16.0156 39.209-16.3086Q39.4043-16.6016 39.4043-17.1875L39.4043-38.8184Q39.4043-40.4785 38.9893-41.5039Q38.5742-42.5293 37.3047-43.6035Q34.8633-45.7031 31.7627-48.4375Q28.6621-51.1719 26.416-53.5645Q25.4883-54.541 25.8545-55.4688Q26.2207-56.3965 27.3438-56.3965L54.7852-56.3965Q55.957-56.3965 56.3232-55.4688Q56.6895-54.541 55.7129-53.5645Q53.4668-51.1719 50.3906-48.4375Q47.3145-45.7031 44.8242-43.6035Q43.6035-42.5293 43.1885-41.5039Q42.7734-40.4785 42.7734-38.8184L42.7734-17.1875Q42.7734-16.6016 42.9443-16.3086Q43.1152-16.0156 43.5547-15.625L59.1309-0.78125Q60.2051 0.195312 59.8877 1.58691Q59.5703 2.97852 57.959 2.97852Z"/>
  </g>
  <g id="Light-M" transform="matrix(1 0 0 1 1112.58 1126)">
   <path d="M19.6777 8.83789L61.4746 8.83789Q64.7949 8.83789 66.7236 6.93359Q68.6523 5.0293 68.6523 1.5625L68.6523 0.292969Q68.6523-3.85742 66.6504-8.27637Q64.6484-12.6953 61.5234-16.9189Q58.3984-21.1426 54.9561-24.8535Q51.5137-28.5645 48.6816-31.3477Q46.6797-33.3496 46.7529-35.376Q46.8262-37.4023 48.6816-39.3066Q51.5137-42.0898 54.9561-45.8008Q58.3984-49.5117 61.5234-53.7109Q64.6484-57.9102 66.6504-62.3291Q68.6523-66.748 68.6523-70.9473L68.6523-72.0703Q68.6523-75.5859 66.7236-77.4658Q64.7949-79.3457 61.4746-79.3457L19.6777-79.3457Q16.3574-79.3457 14.4043-77.4658Q12.4512-75.5859 12.4512-72.0703L12.4512-70.9473Q12.4512-66.748 14.4531-62.3291Q16.4551-57.9102 19.5801-53.7109Q22.7051-49.5117 26.1475-45.8008Q29.5898-42.0898 32.4219-39.3066Q34.3262-37.4023 34.375-35.376Q34.4238-33.3496 32.4219-31.3477Q29.5898-28.5645 26.1475-24.8535Q22.7051-21.1426 19.5801-16.9189Q16.4551-12.6953 14.4531-8.27637Q12.4512-3.85742 12.4512 0.292969L12.4512 1.5625Q12.4512 5.0293 14.4043 6.93359Q16.3574 8.83789 19.6777 8.83789ZM22.998 3.17383Q21.7285 3.17383 21.3867 1.97754Q21.0449 0.78125 22.0215-0.146484L38.2324-15.9668Q38.6719-16.4062 38.8672-16.7236Q39.0625-17.041 39.0625-17.627L39.0625-38.2812Q39.0625-39.5996 38.7451-40.3809Q38.4277-41.1621 37.4023-42.041Q34.5703-44.5312 31.2988-47.6074Q28.0273-50.6836 25.6348-53.418Q24.8047-54.248 25.1221-55.0537Q25.4395-55.8594 26.416-55.8594L54.6875-55.8594Q55.6641-55.8594 55.9814-55.0537Q56.2988-54.248 55.5176-53.418Q53.0762-50.6836 49.8047-47.6074Q46.5332-44.5312 43.7012-42.041Q42.7246-41.1621 42.4072-40.3809Q42.0898-39.5996 42.0898-38.2812L42.0898-17.627Q42.0898-17.041 42.2363-16.7236Q42.3828-16.4062 42.8711-15.9668L59.082-0.146484Q60.0586 0.78125 59.7412 1.97754Q59.4238 3.17383 58.0566 3.17383Z"/>
  </g>
  <g id="Thin-M" transform="matrix(1 0 0 1 816.53 1126)">
   <path d="M18.6523 7.76367L61.1328 7.76367Q63.916 7.76367 65.625 6.0791Q67.334 4.39453 67.334 1.5625L67.334-0.0976562Q67.334-4.05273 65.2832-8.39844Q63.2324-12.7441 60.0586-17.1143Q56.8848-21.4844 53.2471-25.4639Q49.6094-29.4434 46.4355-32.5684Q45.0684-33.9355 45.1172-35.3516Q45.166-36.7676 46.4355-38.0859Q49.6094-41.2109 53.2471-45.1904Q56.8848-49.1699 60.0586-53.5156Q63.2324-57.8613 65.2832-62.2314Q67.334-66.6016 67.334-70.5566L67.334-72.0703Q67.334-74.9023 65.625-76.5869Q63.916-78.2715 61.1328-78.2715L18.6523-78.2715Q15.8691-78.2715 14.1602-76.5869Q12.4512-74.9023 12.4512-72.0703L12.4512-70.5566Q12.4512-66.6016 14.4775-62.2314Q16.5039-57.8613 19.7021-53.5156Q22.9004-49.1699 26.5137-45.1904Q30.127-41.2109 33.3008-38.0859Q34.668-36.7676 34.668-35.3516Q34.668-33.9355 33.3008-32.5684Q30.127-29.4434 26.5137-25.4639Q22.9004-21.4844 19.7021-17.1143Q16.5039-12.7441 14.4775-8.39844Q12.4512-4.05273 12.4512-0.0976562L12.4512 1.5625Q12.4512 4.39453 14.1602 6.0791Q15.8691 7.76367 18.6523 7.76367ZM21.4844 3.41797Q20.5566 3.41797 20.2148 2.49023Q19.873 1.5625 20.7031 0.732422L37.7441-16.4551Q38.2812-16.9434 38.4277-17.2607Q38.5742-17.5781 38.5742-18.2129L38.5742-37.5488Q38.5742-38.4277 38.3789-38.8916Q38.1836-39.3555 37.5-39.9902Q34.2285-42.9199 30.7129-46.4844Q27.1973-50.0488 24.5605-53.1738Q23.9258-53.9062 24.1699-54.5166Q24.4141-55.127 25.2441-55.127L54.541-55.127Q55.3223-55.127 55.5664-54.5166Q55.8105-53.9062 55.2246-53.1738Q52.5391-50.0488 49.0234-46.4844Q45.5078-42.9199 42.2363-39.9902Q41.6016-39.3555 41.4062-38.8916Q41.2109-38.4277 41.2109-37.5488L41.2109-18.2129Q41.2109-17.5781 41.333-17.2607Q41.4551-16.9434 41.9922-16.4551L59.0332 0.732422Q59.9121 1.5625 59.5947 2.49023Q59.2773 3.41797 58.252 3.41797Z"/>
  </g>
  <g id="Ultralight-M" transform="matrix(1 0 0 1 520.16 1126)">
   <path d="M18.1641 7.22656L60.9375 7.22656Q63.4766 7.22656 65.0635 5.63965Q66.6504 4.05273 66.6504 1.51367L66.6504-0.341797Q66.6504-4.10156 64.5996-8.44727Q62.5488-12.793 59.3262-17.2119Q56.1035-21.6309 52.3926-25.7568Q48.6816-29.8828 45.3125-33.2031Q44.2871-34.2285 44.2871-35.3027Q44.2871-36.377 45.3125-37.4512Q48.6816-40.7715 52.3926-44.873Q56.1035-48.9746 59.3262-53.3936Q62.5488-57.8125 64.5996-62.1582Q66.6504-66.5039 66.6504-70.3125L66.6504-72.0215Q66.6504-74.5605 65.0635-76.1475Q63.4766-77.7344 60.9375-77.7344L18.1641-77.7344Q15.625-77.7344 14.0381-76.1475Q12.4512-74.5605 12.4512-72.0215L12.4512-70.3125Q12.4512-66.5039 14.4775-62.1582Q16.5039-57.8125 19.7266-53.3936Q22.9492-48.9746 26.6602-44.873Q30.3711-40.7715 33.7402-37.4512Q34.8145-36.377 34.79-35.3027Q34.7656-34.2285 33.7402-33.2031Q30.3711-29.8828 26.6602-25.7568Q22.9492-21.6309 19.7266-17.2119Q16.5039-12.793 14.4775-8.44727Q12.4512-4.10156 12.4512-0.341797L12.4512 1.51367Q12.4512 4.05273 14.0381 5.63965Q15.625 7.22656 18.1641 7.22656ZM20.7031 3.51562Q19.9219 3.51562 19.6045 2.73438Q19.2871 1.95312 20.0684 1.17188L37.5488-16.6992Q38.0371-17.2363 38.1836-17.5537Q38.3301-17.8711 38.3301-18.5059L38.3301-37.207Q38.3301-37.793 38.208-38.1104Q38.0859-38.4277 37.5977-38.916Q34.0332-42.1387 30.3955-45.9229Q26.7578-49.707 24.0234-53.0762Q23.4863-53.7109 23.7061-54.248Q23.9258-54.7852 24.6094-54.7852L54.4434-54.7852Q55.127-54.7852 55.3467-54.248Q55.5664-53.7109 55.0781-53.0762Q52.2949-49.707 48.6572-45.9229Q45.0195-42.1387 41.5039-38.916Q41.0156-38.4277 40.8936-38.1104Q40.7715-37.793 40.7715-37.207L40.7715-18.5059Q40.7715-17.8711 40.8691-17.5537Q40.9668-17.2363 41.5039-16.6992L58.9844 1.17188Q59.8145 1.95312 59.4971 2.73438Q59.1797 3.51562 58.3008 3.51562Z"/>
  </g>
  <g id="Black-S" transform="matrix(1 0 0 1 2898.68 696)">
   <path d="M18.7012 2.63672L50.7324 2.63672Q54.8828 2.63672 57.2754 0.219727Q59.668-2.19727 59.668-6.34766L59.668-6.93359Q59.668-10.8887 58.0322-14.624Q56.3965-18.3594 54.0039-21.6064Q51.6113-24.8535 49.3408-27.2705Q47.0703-29.6875 45.8008-30.957Q43.8965-32.8613 43.8965-35.3027Q43.8965-37.7441 45.8008-39.6484Q47.0703-40.918 49.3408-43.335Q51.6113-45.752 54.0039-48.9746Q56.3965-52.1973 58.0322-55.957Q59.668-59.7168 59.668-63.6719L59.668-64.1602Q59.668-68.3594 57.2754-70.752Q54.8828-73.1445 50.7324-73.1445L18.7012-73.1445Q14.5508-73.1445 12.1582-70.752Q9.76562-68.3594 9.76562-64.1602L9.76562-63.6719Q9.76562-59.7168 11.4014-55.957Q13.0371-52.1973 15.4297-48.9746Q17.8223-45.752 20.0928-43.335Q22.3633-40.918 23.6328-39.6484Q25.5371-37.7441 25.5371-35.3027Q25.5371-32.8613 23.6328-30.957Q22.3633-29.6875 20.0928-27.2705Q17.8223-24.8535 15.4297-21.6064Q13.0371-18.3594 11.4014-14.624Q9.76562-10.8887 9.76562-6.93359L9.76562-6.34766Q9.76562-2.19727 12.1582 0.219727Q14.5508 2.63672 18.7012 2.63672ZM23.3398-7.12891Q21.6797-7.12891 21.1426-8.61816Q20.6055-10.1074 21.7773-11.3281L30.7129-20.6055Q31.7871-21.7285 32.0557-22.29Q32.3242-22.8516 32.3242-24.707L32.3242-37.4023Q32.3242-39.2578 31.7627-40.625Q31.2012-41.9922 29.8828-43.2617Q28.5645-44.5312 26.7578-46.3135Q24.9512-48.0957 23.6328-49.6094Q22.5586-50.8789 22.9492-52.2461Q23.3398-53.6133 25.1953-53.6133L44.2383-53.6133Q46.0938-53.6133 46.5088-52.2461Q46.9238-50.8789 45.8008-49.6094Q44.4824-48.0957 42.6758-46.3135Q40.8691-44.5312 39.5508-43.2617Q38.2324-41.9922 37.6709-40.625Q37.1094-39.2578 37.1094-37.4023L37.1094-24.707Q37.1094-22.8516 37.3779-22.29Q37.6465-21.7285 38.7207-20.6055L47.6562-11.3281Q48.8281-10.1074 48.291-8.61816Q47.7539-7.12891 46.0938-7.12891Z"/>
  </g>
  <g id="Heavy-S" transform="matrix(1 0 0 1 2602.51 696)">
   <path d="M18.1641 2.09961L50.1953 2.09961Q54.1016 2.09961 56.3477-0.146484Q58.5938-2.39258 58.5938-6.34766L58.5938-6.93359Q58.5938-10.791 56.9824-14.4775Q55.3711-18.1641 52.9785-21.3867Q50.5859-24.6094 48.2422-27.0752Q45.8984-29.541 44.5312-30.957Q42.5293-32.959 42.5537-35.3271Q42.5781-37.6953 44.5312-39.6484Q45.8984-41.0645 48.2422-43.5303Q50.5859-45.9961 52.9785-49.1943Q55.3711-52.3926 56.9824-56.1035Q58.5938-59.8145 58.5938-63.6719L58.5938-64.1602Q58.5938-68.1641 56.3477-70.3857Q54.1016-72.6074 50.1953-72.6074L18.1641-72.6074Q14.2578-72.6074 12.0117-70.3857Q9.76562-68.1641 9.76562-64.1602L9.76562-63.6719Q9.76562-59.8145 11.377-56.1035Q12.9883-52.3926 15.3809-49.1943Q17.7734-45.9961 20.1172-43.5303Q22.4609-41.0645 23.8281-39.6484Q25.7812-37.6953 25.8057-35.3271Q25.8301-32.959 23.8281-30.957Q22.4609-29.541 20.1172-27.0752Q17.7734-24.6094 15.3809-21.3867Q12.9883-18.1641 11.377-14.4775Q9.76562-10.791 9.76562-6.93359L9.76562-6.34766Q9.76562-2.39258 12.0117-0.146484Q14.2578 2.09961 18.1641 2.09961ZM22.4121-6.73828Q20.8496-6.73828 20.3857-8.1543Q19.9219-9.57031 20.9961-10.6934L30.6641-20.4102Q31.543-21.3379 31.7871-21.8018Q32.0312-22.2656 32.0312-23.7793L32.0312-37.5977Q32.0312-39.4043 31.5186-40.6494Q31.0059-41.8945 29.7363-43.0664Q28.3203-44.3848 26.3916-46.2158Q24.4629-48.0469 23.0469-49.6094Q22.0215-50.7812 22.3877-52.002Q22.7539-53.2227 24.4141-53.2227L43.9453-53.2227Q45.6055-53.2227 45.9961-52.002Q46.3867-50.7812 45.3125-49.6094Q43.8965-48.0469 41.9678-46.2158Q40.0391-44.3848 38.623-43.0664Q37.3535-41.8945 36.8408-40.6494Q36.3281-39.4043 36.3281-37.5977L36.3281-23.7793Q36.3281-22.2656 36.5723-21.8018Q36.8164-21.3379 37.6953-20.4102L47.3633-10.6934Q48.4375-9.57031 47.9736-8.1543Q47.5098-6.73828 45.8984-6.73828Z"/>
  </g>
  <g id="Bold-S" transform="matrix(1 0 0 1 2306.38 696)">
   <path d="M17.5781 1.46484L49.6094 1.46484Q53.2227 1.46484 55.3223-0.585938Q57.4219-2.63672 57.4219-6.34766L57.4219-6.98242Q57.4219-10.7422 55.8105-14.3555Q54.1992-17.9688 51.8066-21.167Q49.4141-24.3652 47.0215-26.9043Q44.6289-29.4434 43.0664-31.0059Q41.0156-33.0566 41.0645-35.376Q41.1133-37.6953 43.0664-39.6484Q44.6289-41.2109 47.0215-43.7256Q49.4141-46.2402 51.8066-49.4385Q54.1992-52.6367 55.8105-56.2744Q57.4219-59.9121 57.4219-63.6719L57.4219-64.1602Q57.4219-67.9199 55.3223-69.9463Q53.2227-71.9727 49.6094-71.9727L17.5781-71.9727Q13.916-71.9727 11.8408-69.9463Q9.76562-67.9199 9.76562-64.1602L9.76562-63.6719Q9.76562-59.9121 11.377-56.2744Q12.9883-52.6367 15.3809-49.4385Q17.7734-46.2402 20.166-43.7256Q22.5586-41.2109 24.1211-39.6484Q26.0742-37.6953 26.123-35.376Q26.1719-33.0566 24.1211-31.0059Q22.5586-29.4434 20.166-26.9043Q17.7734-24.3652 15.3809-21.167Q12.9883-17.9688 11.377-14.3555Q9.76562-10.7422 9.76562-6.98242L9.76562-6.34766Q9.76562-2.63672 11.8408-0.585938Q13.916 1.46484 17.5781 1.46484ZM21.4355-6.25Q19.9219-6.25 19.5312-7.59277Q19.1406-8.93555 20.166-9.96094L30.5664-20.166Q31.2988-20.8496 31.4941-21.2402Q31.6895-21.6309 31.6895-22.8027L31.6895-37.8418Q31.6895-39.5508 31.2256-40.6738Q30.7617-41.7969 29.541-42.9199Q28.0273-44.2871 25.9521-46.167Q23.877-48.0469 22.3633-49.6582Q21.4355-50.6836 21.7773-51.7578Q22.1191-52.832 23.5352-52.832L43.6523-52.832Q45.0195-52.832 45.3857-51.7578Q45.752-50.6836 44.7754-49.6582Q43.3105-48.0469 41.2354-46.167Q39.1602-44.2871 37.5977-42.9199Q36.4258-41.7969 35.9619-40.6738Q35.498-39.5508 35.498-37.8418L35.498-22.8027Q35.498-21.6309 35.6934-21.2402Q35.8887-20.8496 36.6211-20.166L47.0215-9.96094Q48.0469-8.93555 47.6562-7.59277Q47.2656-6.25 45.752-6.25Z"/>
  </g>
  <g id="Semibold-S" transform="matrix(1 0 0 1 2010.09 696)">
   <path d="M17.1387 1.02539L49.2188 1.02539Q52.6367 1.02539 54.6143-0.878906Q56.5918-2.7832 56.5918-6.34766L56.5918-6.98242Q56.5918-10.6445 54.9805-14.209Q53.3691-17.7734 51.001-20.9717Q48.6328-24.1699 46.1914-26.7334Q43.75-29.2969 42.0898-31.0059Q39.9902-33.1055 40.0391-35.376Q40.0879-37.6465 42.0898-39.5996Q43.75-41.3086 46.1914-43.8721Q48.6328-46.4355 51.001-49.6094Q53.3691-52.7832 54.9805-56.3721Q56.5918-59.9609 56.5918-63.623L56.5918-64.1602Q56.5918-67.7246 54.6143-69.6289Q52.6367-71.5332 49.2188-71.5332L17.1387-71.5332Q13.6719-71.5332 11.7188-69.6289Q9.76562-67.7246 9.76562-64.1602L9.76562-63.623Q9.76562-59.9609 11.3525-56.3721Q12.9395-52.7832 15.332-49.6094Q17.7246-46.4355 20.166-43.8721Q22.6074-41.3086 24.2676-39.5996Q26.2695-37.6465 26.3184-35.376Q26.3672-33.1055 24.2676-31.0059Q22.6074-29.2969 20.166-26.7334Q17.7246-24.1699 15.332-20.9717Q12.9395-17.7734 11.3525-14.209Q9.76562-10.6445 9.76562-6.98242L9.76562-6.34766Q9.76562-2.7832 11.7188-0.878906Q13.6719 1.02539 17.1387 1.02539ZM20.7031-5.9082Q19.2871-5.9082 18.9209-7.20215Q18.5547-8.49609 19.5312-9.42383L30.5176-19.9707Q31.1035-20.5078 31.2744-20.8496Q31.4453-21.1914 31.4453-22.0703L31.4453-37.9883Q31.4453-39.6484 31.0303-40.6982Q30.6152-41.748 29.3945-42.7734Q27.7832-44.1406 25.6348-46.0693Q23.4863-47.998 21.9238-49.6582Q21.0449-50.6348 21.3623-51.5869Q21.6797-52.5391 22.9492-52.5391L43.4082-52.5391Q44.6289-52.5391 44.9707-51.5869Q45.3125-50.6348 44.3848-49.6582Q42.8711-47.998 40.6982-46.0693Q38.5254-44.1406 36.8652-42.7734Q35.7422-41.748 35.3027-40.6982Q34.8633-39.6484 34.8633-37.9883L34.8633-22.0703Q34.8633-21.1914 35.0586-20.8496Q35.2539-20.5078 35.8398-19.9707L46.7773-9.42383Q47.7539-8.49609 47.4121-7.20215Q47.0703-5.9082 45.6055-5.9082Z"/>
  </g>
  <g id="Medium-S" transform="matrix(1 0 0 1 1713.69 696)">
   <path d="M16.7969 0.732422L48.877 0.732422Q52.1484 0.732422 54.0527-1.09863Q55.957-2.92969 55.957-6.34766L55.957-6.98242Q55.957-10.5957 54.3457-14.1357Q52.7344-17.6758 50.3662-20.874Q47.998-24.0723 45.5322-26.6602Q43.0664-29.248 41.3086-31.0059Q39.1602-33.1543 39.2334-35.4004Q39.3066-37.6465 41.3086-39.5996Q43.0664-41.3574 45.5322-43.9453Q47.998-46.5332 50.3662-49.7314Q52.7344-52.9297 54.3457-56.4697Q55.957-60.0098 55.957-63.623L55.957-64.1602Q55.957-67.5781 54.0527-69.4092Q52.1484-71.2402 48.877-71.2402L16.7969-71.2402Q13.5254-71.2402 11.6455-69.4092Q9.76562-67.5781 9.76562-64.1602L9.76562-63.623Q9.76562-60.0098 11.3525-56.4697Q12.9395-52.9297 15.332-49.7314Q17.7246-46.5332 20.1904-43.9453Q22.6562-41.3574 24.4141-39.5996Q26.416-37.6465 26.4893-35.4004Q26.5625-33.1543 24.4141-31.0059Q22.6562-29.248 20.1904-26.6602Q17.7246-24.0723 15.332-20.874Q12.9395-17.6758 11.3525-14.1357Q9.76562-10.5957 9.76562-6.98242L9.76562-6.34766Q9.76562-2.92969 11.6455-1.09863Q13.5254 0.732422 16.7969 0.732422ZM20.166-5.66406Q18.7988-5.66406 18.4814-6.93359Q18.1641-8.20312 19.0918-9.0332L30.4688-19.8242Q30.957-20.2637 31.1279-20.5566Q31.2988-20.8496 31.2988-21.5332L31.2988-38.1348Q31.2988-39.6973 30.8838-40.6738Q30.4688-41.6504 29.3457-42.6758Q27.6367-44.0918 25.415-46.0449Q23.1934-47.998 21.5332-49.6582Q20.7031-50.5371 21.0205-51.4404Q21.3379-52.3438 22.4609-52.3438L43.2129-52.3438Q44.3359-52.3438 44.6777-51.4404Q45.0195-50.5371 44.1406-49.6582Q42.5293-47.998 40.3076-46.0449Q38.0859-44.0918 36.3281-42.6758Q35.2051-41.6504 34.8145-40.6738Q34.4238-39.6973 34.4238-38.1348L34.4238-21.5332Q34.4238-20.8496 34.5947-20.5566Q34.7656-20.2637 35.2539-19.8242L46.6309-9.0332Q47.5586-8.20312 47.2412-6.93359Q46.9238-5.66406 45.5078-5.66406Z"/>
  </g>
  <g id="Regular-S" transform="matrix(1 0 0 1 1417.4 696)">
   <path d="M16.4062 0.292969L48.4863 0.292969Q51.5625 0.292969 53.3447-1.3916Q55.127-3.07617 55.127-6.34766L55.127-6.98242Q55.127-10.5469 53.54-14.0381Q51.9531-17.5293 49.585-20.7031Q47.2168-23.877 44.7021-26.5137Q42.1875-29.1504 40.332-31.0059Q38.1348-33.2031 38.208-35.4004Q38.2812-37.5977 40.332-39.5996Q42.1875-41.4551 44.7021-44.0918Q47.2168-46.7285 49.585-49.9023Q51.9531-53.0762 53.54-56.5674Q55.127-60.0586 55.127-63.623L55.127-64.1602Q55.127-67.4316 53.3447-69.1162Q51.5625-70.8008 48.4863-70.8008L16.4062-70.8008Q13.2812-70.8008 11.5234-69.1162Q9.76562-67.4316 9.76562-64.1602L9.76562-63.623Q9.76562-60.0586 11.3281-56.5674Q12.8906-53.0762 15.2832-49.9023Q17.6758-46.7285 20.1904-44.0918Q22.7051-41.4551 24.5605-39.5996Q26.6113-37.5977 26.6846-35.4004Q26.7578-33.2031 24.5605-31.0059Q22.7051-29.1504 20.1904-26.5137Q17.6758-23.877 15.2832-20.7031Q12.8906-17.5293 11.3281-14.0381Q9.76562-10.5469 9.76562-6.98242L9.76562-6.34766Q9.76562-3.07617 11.5234-1.3916Q13.2812 0.292969 16.4062 0.292969ZM19.4824-5.37109Q18.1641-5.37109 17.8955-6.56738Q17.627-7.76367 18.5059-8.54492L30.4199-19.6777Q30.7617-19.9707 30.9082-20.1904Q31.0547-20.4102 31.0547-20.8496L31.0547-38.2812Q31.0547-39.7949 30.6885-40.6982Q30.3223-41.6016 29.1992-42.5293Q27.4414-43.9941 25.1221-45.9717Q22.8027-47.9492 21.0938-49.6582Q20.3125-50.4883 20.6055-51.2695Q20.8984-52.0508 21.875-52.0508L43.0176-52.0508Q43.9453-52.0508 44.2627-51.2695Q44.5801-50.4883 43.75-49.6582Q42.0898-47.9492 39.7705-45.9717Q37.4512-43.9941 35.6445-42.5293Q34.5703-41.6016 34.2041-40.6982Q33.8379-39.7949 33.8379-38.2812L33.8379-20.8496Q33.8379-20.4102 33.9844-20.1904Q34.1309-19.9707 34.4727-19.6777L46.3867-8.54492Q47.2656-7.76367 46.9971-6.56738Q46.7285-5.37109 45.3613-5.37109Z"/>
  </g>
  <g id="Light-S" transform="matrix(1 0 0 1 1121.15 696)">
   <path d="M15.7227-0.439453L48.2422-0.439453Q50.9766-0.439453 52.5879-1.97754Q54.1992-3.51562 54.1992-6.39648L54.1992-7.27539Q54.1992-10.6445 52.6123-14.1113Q51.0254-17.5781 48.6084-20.8496Q46.1914-24.1211 43.5547-26.9287Q40.918-29.7363 38.8184-31.8359Q37.0605-33.5938 37.1094-35.376Q37.1582-37.1582 38.8184-38.7695Q40.918-40.8691 43.5547-43.6768Q46.1914-46.4844 48.6084-49.7559Q51.0254-53.0273 52.6123-56.4941Q54.1992-59.9609 54.1992-63.3301L54.1992-64.1113Q54.1992-66.9922 52.5879-68.5303Q50.9766-70.0684 48.2422-70.0684L15.7227-70.0684Q12.9395-70.0684 11.3525-68.5303Q9.76562-66.9922 9.76562-64.1113L9.76562-63.3301Q9.76562-59.9609 11.3281-56.4941Q12.8906-53.0273 15.332-49.7559Q17.7734-46.4844 20.4102-43.6768Q23.0469-40.8691 25.1465-38.7695Q26.8066-37.1582 26.8555-35.376Q26.9043-33.5938 25.1465-31.8359Q23.0469-29.7363 20.4102-26.9287Q17.7734-24.1211 15.332-20.8496Q12.8906-17.5781 11.3281-14.1113Q9.76562-10.6445 9.76562-7.27539L9.76562-6.39648Q9.76562-3.51562 11.3525-1.97754Q12.9395-0.439453 15.7227-0.439453ZM18.5059-5.22461Q17.3828-5.22461 17.1143-6.22559Q16.8457-7.22656 17.627-7.95898L30.127-20.0195Q30.4688-20.3125 30.5908-20.5566Q30.7129-20.8008 30.7129-21.2402L30.7129-37.793Q30.7129-39.0137 30.4443-39.7217Q30.1758-40.4297 29.2969-41.1621Q27.1973-42.9199 24.707-45.2148Q22.2168-47.5098 20.3613-49.5117Q19.7266-50.2441 19.9707-50.9033Q20.2148-51.5625 21.0938-51.5625L42.9199-51.5625Q43.7012-51.5625 43.9697-50.9033Q44.2383-50.2441 43.5547-49.5117Q41.748-47.5098 39.2578-45.2148Q36.7676-42.9199 34.668-41.1621Q33.8379-40.4297 33.5449-39.7217Q33.252-39.0137 33.252-37.793L33.252-21.2402Q33.252-20.8008 33.374-20.5566Q33.4961-20.3125 33.8867-20.0195L46.3379-7.95898Q47.168-7.22656 46.8994-6.22559Q46.6309-5.22461 45.459-5.22461Z"/>
  </g>
  <g id="Thin-S" transform="matrix(1 0 0 1 825.026 696)">
   <path d="M14.8438-1.36719L47.9492-1.36719Q50.2441-1.36719 51.6357-2.70996Q53.0273-4.05273 53.0273-6.39648L53.0273-7.61719Q53.0273-10.7422 51.4404-14.1602Q49.8535-17.5781 47.3633-20.9961Q44.873-24.4141 42.0654-27.4658Q39.2578-30.5176 36.8652-32.9102Q35.6445-34.1309 35.6689-35.3271Q35.6934-36.5234 36.8652-37.6953Q39.2578-40.0879 42.0654-43.1396Q44.873-46.1914 47.3633-49.585Q49.8535-52.9785 51.4404-56.3965Q53.0273-59.8145 53.0273-62.9883L53.0273-64.1113Q53.0273-66.4551 51.6357-67.7979Q50.2441-69.1406 47.9492-69.1406L14.8438-69.1406Q12.5-69.1406 11.1328-67.7979Q9.76562-66.4551 9.76562-64.1113L9.76562-62.9883Q9.76562-59.8145 11.3525-56.3965Q12.9395-52.9785 15.4297-49.585Q17.9199-46.1914 20.7275-43.1396Q23.5352-40.0879 25.9277-37.6953Q27.0996-36.5234 27.0996-35.3271Q27.0996-34.1309 25.9277-32.9102Q23.5352-30.5176 20.7275-27.4658Q17.9199-24.4141 15.4297-20.9961Q12.9395-17.5781 11.3525-14.1602Q9.76562-10.7422 9.76562-7.61719L9.76562-6.39648Q9.76562-4.05273 11.1328-2.70996Q12.5-1.36719 14.8438-1.36719ZM17.1387-5.0293Q16.3086-5.0293 16.0645-5.81055Q15.8203-6.5918 16.5039-7.22656L29.7363-20.4102Q30.0781-20.8008 30.2002-21.0449Q30.3223-21.2891 30.3223-21.7773L30.3223-37.1582Q30.3223-37.9395 30.1514-38.3789Q29.9805-38.8184 29.3945-39.3066Q26.8555-41.5527 24.1699-44.2627Q21.4844-46.9727 19.4336-49.3652Q18.9453-49.9023 19.1406-50.415Q19.3359-50.9277 20.0195-50.9277L42.7734-50.9277Q43.4082-50.9277 43.6279-50.415Q43.8477-49.9023 43.3105-49.3652Q41.2598-46.9727 38.5742-44.2627Q35.8887-41.5527 33.3984-39.3066Q32.8125-38.8184 32.6416-38.3789Q32.4707-37.9395 32.4707-37.1582L32.4707-21.7773Q32.4707-21.2891 32.5684-21.0449Q32.666-20.8008 33.0566-20.4102L46.2891-7.22656Q46.9727-6.5918 46.7041-5.81055Q46.4355-5.0293 45.6055-5.0293Z"/>
  </g>
  <g id="Ultralight-S" transform="matrix(1 0 0 1 528.632 696)">
   <path d="M14.3555-1.85547L47.8027-1.85547Q49.8535-1.85547 51.123-3.10059Q52.3926-4.3457 52.3926-6.44531L52.3926-7.8125Q52.3926-10.8398 50.8057-14.2334Q49.2188-17.627 46.7041-21.0938Q44.1895-24.5605 41.3086-27.7344Q38.4277-30.9082 35.8398-33.4473Q34.9121-34.375 34.9121-35.3027Q34.9121-36.2305 35.8398-37.1582Q38.4277-39.6973 41.3086-42.8711Q44.1895-46.0449 46.7041-49.4873Q49.2188-52.9297 50.8057-56.3232Q52.3926-59.7168 52.3926-62.793L52.3926-64.0625Q52.3926-66.1621 51.123-67.4072Q49.8535-68.6523 47.8027-68.6523L14.3555-68.6523Q12.3047-68.6523 11.0352-67.4072Q9.76562-66.1621 9.76562-64.0625L9.76562-62.793Q9.76562-59.7168 11.3525-56.3232Q12.9395-52.9297 15.4785-49.4873Q18.0176-46.0449 20.874-42.8711Q23.7305-39.6973 26.3184-37.1582Q27.2461-36.2305 27.2217-35.3027Q27.1973-34.375 26.3184-33.4473Q23.7305-30.9082 20.874-27.7344Q18.0176-24.5605 15.4785-21.0938Q12.9395-17.627 11.3525-14.2334Q9.76562-10.8398 9.76562-7.8125L9.76562-6.44531Q9.76562-4.3457 11.0352-3.10059Q12.3047-1.85547 14.3555-1.85547ZM16.5039-4.93164Q15.7715-4.93164 15.5273-5.56641Q15.2832-6.20117 15.918-6.83594L29.4922-20.6543Q29.8828-21.0449 29.9805-21.2891Q30.0781-21.5332 30.0781-22.0703L30.0781-36.8164Q30.0781-37.4023 29.9805-37.7197Q29.8828-38.0371 29.4434-38.3789Q26.709-40.8203 23.9014-43.75Q21.0938-46.6797 18.9453-49.2676Q18.5547-49.7559 18.7256-50.1709Q18.8965-50.5859 19.4824-50.5859L42.6758-50.5859Q43.2617-50.5859 43.4326-50.1709Q43.6035-49.7559 43.2129-49.2676Q41.0645-46.6797 38.2324-43.75Q35.4004-40.8203 32.7148-38.3789Q32.3242-38.0371 32.2021-37.7197Q32.0801-37.4023 32.0801-36.8164L32.0801-22.0703Q32.0801-21.5332 32.1777-21.2891Q32.2754-21.0449 32.666-20.6543L46.2402-6.83594Q46.9238-6.20117 46.6553-5.56641Q46.3867-4.93164 45.7031-4.93164Z"/>
  </g>
 </g>
</svg>
